<?xml version="1.0" standalone="no"?><!DOCTYPE svg PUBLIC "-//W3C//DTD SVG 1.1//EN" "http://www.w3.org/Graphics/SVG/1.1/DTD/svg11.dtd"><svg t="1600526345505" class="icon" viewBox="0 0 1024 1024" version="1.1" xmlns="http://www.w3.org/2000/svg" p-id="1661" xmlns:xlink="http://www.w3.org/1999/xlink" width="200" height="200"><defs><style type="text/css"></style></defs><path d="M895.26909155 156.09582933H402.49662578c0-30.23394133-24.510464-54.75896889-54.75896889-54.75896888H128.73090845c-30.23394133 0-54.75896889 24.510464-54.7589689 54.75896888V320.35817245c0 30.26306845 24.510464 54.77353245 54.7589689 54.77353244h766.55274666c30.23394133 0 54.75896889-24.510464 54.75896889-54.77353244v-109.50337423c-0.01456355-30.24850489-24.52502755-54.75896889-54.77353245-54.75896889z" fill="#CCA352" p-id="1662"></path><path d="M840.52468622 210.84023467H183.47531378c-30.23394133 0-54.75896889 24.510464-54.75896889 54.75896888v54.7589689c0 30.26306845 24.510464 54.77353245 54.75896889 54.77353244h657.03480889c30.23394133 0 54.75896889-24.510464 54.75896888-54.77353244v-54.7589689c0-30.23394133-24.510464-54.75896889-54.74440533-54.75896888z" fill="#FFFFFF" p-id="1663"></path><path d="M895.26909155 265.59920355H128.73090845c-30.23394133 0-54.75896889 24.510464-54.7589689 54.7589689v547.56056177c0 30.20481422 24.510464 54.75896889 54.7589689 54.75896889h766.55274666c30.23394133 0 54.75896889-24.53959111 54.75896889-54.75896889V320.34360889c-0.01456355-30.23394133-24.52502755-54.74440533-54.77353245-54.74440534z" fill="#FFCC66" p-id="1664"></path></svg>