<?xml version="1.0" standalone="no"?><!DOCTYPE svg PUBLIC "-//W3C//DTD SVG 1.1//EN" "http://www.w3.org/Graphics/SVG/1.1/DTD/svg11.dtd"><svg t="1600702383126" class="icon" viewBox="0 0 1024 1024" version="1.1" xmlns="http://www.w3.org/2000/svg" p-id="1613" xmlns:xlink="http://www.w3.org/1999/xlink" width="200" height="200"><defs><style type="text/css"></style></defs><path d="M512.10840566 1011.0987666c-54.27330369 0-103.67426498-54.15429456-139.10273824-152.48724629-33.38880429-92.66877998-51.77644938-215.51780659-51.77644936-345.91749176s18.38764508-253.24871041 51.77644936-345.91866823c35.42847188-98.3317739 84.82943317-152.48606843 139.10273824-152.48606844s103.67308713 54.15429456 139.10155902 152.48606844c33.38880429 92.66995782 51.77644938 215.51898444 51.77644937 345.91866823s-18.38764508 253.24871041-51.77644937 345.91749176c-35.42847188 98.33295174-84.82943317 152.48724629-139.10155902 152.48724629z m0-961.45877178c-17.98937331 0-36.96735545 11.30713521-54.8813169 32.69831067-18.63037758 22.24663398-36.25329506 55.58830604-50.96458814 96.42054382-32.03963167 88.92408741-49.68493534 207.51938693-49.68493536 333.93635848s17.64530506 245.01109321 49.68493536 333.93635848c14.71129447 40.83223642 32.33421058 74.17390846 50.96458814 96.42054243 17.91396145 21.39117548 36.89194222 32.69831069 54.8813169 32.6983107s36.96735545-11.30713521 54.88013768-32.6983107c18.6291997-22.24663398 36.25329506-55.58830604 50.96458815-96.42054243 32.03845244-88.92762236 49.68375749-207.52174402 49.68375748-333.93635848 0-126.4157937-17.64530506-245.00991536-49.68375748-333.93635848-14.71129447-40.83223642-32.33538845-74.17390846-50.96458815-96.42054382-17.91396145-21.39117548-36.89076435-32.69831069-54.88013768-32.69831067z" fill="#f4ea2a" p-id="1614"></path><path d="M512.10840566 20.1820577c51.60323669 0 99.03522943 52.77094889 133.5587535 148.59172864 33.16492443 92.04662833 51.42884618 214.18630735 51.42884614 343.92142145s-18.26392176 251.87479312-51.42884614 343.9202422c-34.52352404 95.82077975-81.95551679 148.59172863-133.5587535 148.59172863s-99.03640729-52.77094889-133.5599327-148.59172863c-33.16492443-92.04545047-51.42884618-214.18512949-51.42884618-343.9202422s18.26392176-251.87479312 51.42884618-343.92142145c34.52352404-95.82077975 81.95551679-148.59172863 133.5599327-148.59172864m0 961.45877042c40.33263024 0 80.9315598-48.48187363 111.38753135-133.01319293 32.26351153-89.54977399 50.03253993-208.85324188 50.03253995-335.93360664 0-127.08036477-17.76902839-246.38383264-50.03253995-335.93360665-30.45715079-84.53249717-71.05608035-133.01319293-111.38753135-133.01319293-40.33263024 0-80.93273765 48.48187363-111.38871059 133.01319293-32.26468938 89.54977399-50.03253993 208.85324188-50.03253991 335.93360665 0 127.08036477 17.76902839 246.38383264 50.03253991 335.93360664 30.45597294 84.53249717 71.05608035 133.01319293 111.38871059 133.01319293m0-973.24194498c-29.16689313 0-56.73834483 14.22111393-81.94844825 42.26978284-23.90334885 26.59344771-44.99758832 64.98538903-62.69709552 114.11180187-33.61386338 93.29446657-52.12523181 216.85283939-52.12523181 347.9159178s18.51136843 254.62145122 52.12523181 347.91473854c17.6995072 49.12523499 38.79374667 87.51835417 62.69709552 114.11180188 25.21010342 28.04749105 52.78155374 42.26978422 81.94844825 42.26978422 29.16571527 0 56.7371656-14.22111393 81.94726903-42.26978422 23.90334885-26.59344771 44.99758832-64.98656689 62.69591766-114.11180188 33.61386338-93.29328871 52.12523181-216.85166154 52.12523044-347.91473854s-18.51136843-254.62145122-52.12523044-347.9159178c-17.6995072-49.12523499-38.79374667-87.51835417-62.69591766-114.11180187-25.21010342-28.04867028-52.78155374-42.26978422-81.94726903-42.26978284z m0 961.45877043c-34.5553386 0-72.05175909-46.81337605-100.30309952-125.22333547-31.81457257-88.30075652-49.33615428-206.18553197-49.33615428-331.93911031 0-125.75475758 17.52158172-243.63953164 49.33615428-331.93911031 28.25134044-78.41113866 65.74658167-125.22451471 100.30309952-125.22451471 34.55416076 0 72.05057985 46.81337605 100.3019203 125.22451471 31.81457257 88.30193577 49.33497504 206.18670983 49.33497504 331.93911031 0 125.75122262-17.52158172 243.63717456-49.33497504 331.93911031-28.25134044 78.41113866-65.74775954 125.22333547-100.3019203 125.22333547z" fill="#f4ea2a" p-id="1615"></path><path d="M204.77492052 799.62141072c-63.56433812 0-107.52029331-18.42063751-127.11453505-53.27055642-26.59816053-47.30944727-3.60329447-116.91148427 64.74736796-195.98365765 64.41626167-74.52151166 162.4888048-150.75629742 276.15284695-214.65999099 146.06070265-82.12048169 295.92147922-131.14673801 400.87775411-131.146738 63.56669385 0 107.52147254 18.42063751 127.11571429 53.27173427 26.59816053 47.3082694 3.6044737 116.91030641-64.74736937 195.98247981-64.41508244 74.51797671-162.48762693 150.75394171-276.15402479 214.65999097-146.06070265 82.11930384-295.92147922 131.14673801-400.8777541 131.14673801z m614.66343397-559.7137751c-99.16130988 0-242.54605345 47.33065697-383.55295188 126.61139395-110.19389664 61.95357763-204.92119683 135.45466725-266.73455422 206.96439937-28.38331153 32.83499599-48.80944637 64.53762791-59.07141348 91.67899328-9.8672303 26.09855436-10.42339708 48.18258053-1.6060463 63.86362985 16.37861281 29.13154361 61.40919495 35.24583359 96.30153191 35.24583359 99.16013062 0 242.54487422-47.33065697 383.55413111-126.61021609C698.52294689 575.70691409 793.25024846 502.20582446 855.06360586 430.69609234c28.38213369-32.83499599 48.80944637-64.53762791 59.07141347-91.67899327 9.8672303-26.09855436 10.42221786-48.18258053 1.6060463-63.86362984-16.37861281-29.13036575-61.41037281-35.24583359-96.30271114-35.24583361z" fill="#f4ea2a" p-id="1616"></path><path d="M819.43835449 210.44969853c61.31139413 0 103.49162668 17.38253933 121.98060614 50.2682025 25.29022809 44.9810928 2.53691804 112.18878771-64.06865708 189.24250461-63.98146253 74.01837054-161.49784023 149.79714745-274.58332803 213.37798109-145.21938394 81.64679805-294.00082215 130.39025818-397.99087575 130.39025818-61.31021629 0-103.49044746-17.38253933-121.97942831-50.26702466-25.28905024-44.98227066-2.53573881-112.18996558 64.06983634-189.24250459 63.98146253-74.01837054 161.49784023-149.79832529 274.58332664-213.3779811 145.21702685-81.64679805 293.99846506-130.39143602 397.98852005-130.39143603M204.77492052 770.16347363c100.1263519 0 244.59043386-47.61345317 386.44100807-127.36669592 110.77244961-62.27879326 206.05827369-136.23706962 268.30407451-208.24758715 58.75798057-67.97477962 81.12244723-127.12513991 61.35499143-162.28142182-17.77491906-31.61543735-64.97360494-38.25054322-101.4378179-38.25054184-100.1263519 0-244.59043386 47.61345317-386.44100808 127.36669454-110.77244961 62.27879326-206.05827369 136.23589177-268.3040745 208.24640929-58.75915842 67.97477962-81.12244723 127.12513991-61.35617067 162.28259968 17.77727617 31.61425813 64.97478417 38.25054322 101.43899714 38.25054322m614.66343397-571.49695104c-105.92249478 0-256.8626111 49.30905252-403.76581031 131.90321785-114.24141727 64.23008705-212.87248288 140.91970384-277.72236585 215.94317874-34.14646336 39.50309427-57.27565761 76.70611232-68.74186431 110.57567152-12.09307252 35.72069509-10.97838463 66.72340643 3.31578545 92.14796409 20.69950402 36.81653036 66.43118461 56.27526606 132.25082105 56.27526468 105.92249478 0 256.8626111-49.30905252 403.76581031-131.90203862 114.24377297-64.23244414 212.87483997-140.92205955 277.72354371-215.94435798 34.14764122-39.50309427 57.27565761-76.70611232 68.74186568-110.57567013 12.09307252-35.72069509 10.9772054-66.72340643-3.31578546-92.1479641-20.69950402-36.81417326-66.43118461-56.27526606-132.25200027-56.27526605zM204.77492052 758.3802977c-21.17672261 0-39.45242708-2.27650941-54.32043592-6.76707697-18.00115602-5.43675696-30.39705662-14.00783892-36.84598923-25.47522486-16.93477961-30.12133031 5.49449405-85.74734297 59.9987489-148.80146868 61.37855824-71.00776886 155.54969303-144.05284962 265.16385746-205.68121162 140.16675894-78.80587411 282.47098493-125.8549141 380.6660749-125.85491411 21.17672261 0 39.45242708 2.27650941 54.32161518 6.76707696 18.00115602 5.43675696 30.39705662 14.00783892 36.84598784 25.47640272 16.93477961 30.12015245-5.49449405 85.74734297-59.99874892 148.80147006-61.37855824 71.00776886-155.54969303 144.05284962-265.1650353 205.68238949-140.16675894 78.80469623-282.47216278 125.852557-380.66607491 125.85255701z" fill="#f4ea2a" p-id="1617"></path><path d="M817.43050145 789.43132052c-104.04307929 0-251.065289-44.08910553-393.2870332-117.94015546-115.72727517-60.09183552-216.28017709-133.02497566-283.13673386-205.36188664-70.94178401-76.75678087-96.23790414-145.55520443-71.22693592-193.72246729 19.58717184-37.72030034 66.96260534-57.65861034 137.00415431-57.65861035 104.04190004 0 251.06410976 44.08910553 393.28703185 117.93897621 115.72609731 60.09183552 216.28017709 133.02497566 283.13791309 205.36306589 70.94178401 76.75678087 96.23672491 145.55402657 71.22575806 193.72128943-19.58834971 37.7214782-66.96260534 57.65978819-137.00415433 57.65978821zM206.78395278 250.09772586c-39.0447283 0-89.0654855 6.6963779-105.63145081 38.59932427-8.29064148 15.96620261-7.00156307 38.01841422 3.72819566 63.77525604 11.15866721 26.78551299 32.62761164 57.79058144 62.08555012 89.66407034 64.15585303 69.41468452 161.27513822 139.72606774 273.46746089 197.98208507 137.42481366 71.36008625 278.35865731 113.96333387 376.99679281 113.96333385 39.0447283 0 89.06430627-6.69755714 105.63145083-38.60050212 8.29064148-15.96502338 7.00156307-38.01841422-3.72819704-63.77407818-11.15748797-26.78551299-32.62643378-57.79058144-62.08554873-89.66407036-64.15349595-69.41232743-161.27278113-139.7248899-273.46746091-197.98208505-137.42599152-71.36008625-278.35865731-113.96333387-376.99679282-113.96333386z" fill="#f4ea2a" p-id="1618"></path><path d="M206.78395278 220.63978737c103.14166638 0 249.14934475 43.84165886 390.57101046 117.27558436C712.49307919 397.70320274 812.47449804 470.19800876 878.88093799 542.04945341c69.13070909 74.79723796 94.10397069 141.21074779 70.32434517 187.00723537-18.50783347 35.64292612-64.07572701 54.48304514-131.77478171 54.48304514-103.14166638 0-249.14934475-43.84165886-390.57218967-117.27676361-115.13693811-59.7854739-215.11835696-132.28145777-281.52479551-204.13172318-69.12953123-74.79723796-94.10514854-141.21074779-70.32434518-187.00841462 18.50783347-35.64292612 64.07454914-54.48304514 131.77478169-54.48304514m610.64654867 539.33359603c40.67669849 0 92.93036645-7.2478305 110.85964558-41.77724657 18.58678028-35.79375123-5.72898016-94.16759983-66.71515867-160.15220257-64.60479202-69.90132873-162.2967395-140.64986819-275.07939923-199.21224852-138.22489078-71.77485357-280.17208795-114.62436999-379.71163635-114.62437-40.67787636 0-92.93036645 7.2478305-110.85964556 41.77606872-18.58678028 35.79492909 5.73015802 94.16759983 66.71633651 160.15338044 64.60479202 69.90132873 162.2967395 140.64986819 275.07822138 199.21224853 138.22489078 71.7736757 280.17208795 114.62436999 379.71163634 114.62436997M206.78395278 208.85661281c-72.38286539 0-121.56583886 21.03650237-142.23234907 60.83535478-13.4410673 25.88527935-13.52590614 56.90802255-0.25098162 92.20687907 12.58560878 33.46893034 36.93789661 69.8824761 72.37933043 108.22846304 67.3066736 72.8259137 168.4322392 146.19385297 284.74749434 206.59205013 143.02064349 74.26463936 291.05856242 118.60236941 396.00187675 118.60237079 72.38286539 0 121.56583886-21.03768023 142.23234905-60.83653264 13.4410673-25.88410012 13.52590614-56.90684332 0.25098165-92.2057012-12.58560878-33.46893034-36.93789661-69.8824761-72.37933184-108.2296409-67.3066736-72.8235566-168.4322392-146.19267374-284.74749432-206.59087365-143.02182133-74.26463936-291.05974166-118.60236941-396.00187537-118.60236942z m610.64654867 539.33359603c-97.73672401 0-237.65603491-42.35462308-374.28194928-113.29994203-111.60434268-57.95083354-208.15096557-127.82506051-271.85552256-196.75309945-56.56984496-61.2065248-80.83729393-116.05720361-64.91233288-146.7252737 6.53612719-12.58796589 19.93830999-22.00272226 39.83420056-27.98150619 16.42810215-4.93715079 36.80710335-7.44107503 60.56905549-7.44107501 97.73790187 0 237.65485705 42.35462308 374.28077145 113.29876279 111.60669842 57.95201139 208.15332128 127.82741761 271.8567004 196.75310081 56.56984496 61.2065248 80.83611609 116.05720361 64.91115503 146.72409448-6.53612719 12.58796589-19.93830999 22.00272226-39.83302409 27.98268405-16.4292814 4.93832864-36.80710335 7.44225287-60.56905412 7.44225425z" fill="#f4ea2a" p-id="1619"></path><path d="M512.10722643 589.89503558c-42.56907595 0-77.20100566-34.63192971-77.20100565-77.20100703s34.63192971-77.20100566 77.20100565-77.20100566 77.20100566 34.63192971 77.20100703 77.20100566-34.63192971 77.20100566-77.20100703 77.20100703z m0-119.05130976c-23.07734783 0-41.85148059 18.77413276-41.85148058 41.85148197 0 23.07616996 18.77413276 41.85148059 41.85148058 41.85148058s41.85148059-18.77413276 41.85148198-41.85148058-18.77413276-41.85148059-41.85148198-41.85148197z" fill="#f4ea2a" p-id="1620"></path><path d="M512.10722643 441.38578873c39.32045459 0 71.30941906 31.98896309 71.30941907 71.30941906s-31.98896309 71.30941906-71.30941907 71.30941768-71.30941906-31.98896309-71.30941768-71.30941768 31.98896309-71.30941906 71.30941768-71.30941906m0 119.05130838c26.32596918 0 47.74306855-21.41709939 47.74306857-47.74306856 0-26.32596918-21.41709939-47.74306855-47.74306857-47.74306857s-47.74306855 21.41709939-47.74306855 47.74306857c0 26.32596918 21.41709939 47.74306855 47.74306855 47.74306856m0-130.83448296c-45.81769729 0-83.09259363 37.27489633-83.09259363 83.09259364s37.27489633 83.09259363 83.09259363 83.09259363 83.09259363-37.27489633 83.09259363-83.09259363-37.27489633-83.09259363-83.09259363-83.09259364z m0 119.05130839c-19.82872647 0-35.95989399-16.13116615-35.95989261-35.95989399s16.13116615-35.95989399 35.95989261-35.95989261 35.95989399 16.13116615 35.95989401 35.95989261-16.13234539 35.95989399-35.95989401 35.95989399z" fill="#f4ea2a" p-id="1621"></path></svg>